<svg width="300" height="62" viewBox="0 0 300 62" fill="none" xmlns="http://www.w3.org/2000/svg">
<g clip-path="url(#clip0_56_146)">
<path d="M17.4717 29.2315L16.2741 19.511H16.2073L10.9356 29.2315H17.4717ZM14.495 14.2383H20.004L24.0781 38.6752H18.7395L17.9508 33.233H8.8133L5.73296 38.6752H0.0869141L14.495 14.2383Z" fill="#212C65"/>
<path d="M36.3974 27.9301C36.7841 27.9301 37.1683 27.9079 37.545 27.8611C37.9204 27.8166 38.2512 27.7185 38.5364 27.5713C38.8204 27.421 39.0546 27.206 39.2371 26.9196C39.4222 26.6356 39.5112 26.2511 39.5112 25.7723C39.5112 25.3844 39.4333 25.0892 39.2716 24.883C39.1125 24.6771 38.9006 24.53 38.6388 24.4376C38.3772 24.3483 38.0909 24.2904 37.7843 24.2682C37.4746 24.2459 37.1851 24.2314 36.9088 24.2314H33.7627L32.9739 27.9301H36.3974ZM34.7541 35.3887C35.1887 35.3887 35.6342 35.372 36.0911 35.3386C36.5446 35.3052 36.9624 35.2027 37.3388 35.03C37.7142 34.8595 38.0239 34.6089 38.2635 34.278C38.503 33.946 38.6222 33.4948 38.6222 32.9268C38.6222 32.4476 38.5241 32.0834 38.3302 31.8293C38.1377 31.5786 37.8924 31.3927 37.595 31.2666C37.2998 31.142 36.9624 31.0661 36.5868 31.0439C36.2103 31.0216 35.8504 31.0082 35.5084 31.0082H32.3256L31.401 35.3887H34.7541ZM29.6542 20.9818H37.7678C38.4973 20.9818 39.2371 21.0095 39.9903 21.0677C40.7444 21.1233 41.4408 21.2904 42.078 21.5633C42.7163 21.8363 43.2422 22.2484 43.6523 22.7943C44.0644 23.3435 44.2683 24.1201 44.2683 25.1226C44.2683 26.2178 43.9751 27.137 43.3936 27.8776C42.8055 28.6186 41.9978 29.092 40.9674 29.2982C42.6438 29.8686 43.4829 31.0661 43.4829 32.8911C43.4829 33.5093 43.3848 34.1076 43.19 34.6868C42.9983 35.2695 42.722 35.8065 42.3689 36.2967C42.0144 36.7868 41.5946 37.2102 41.1032 37.5645C40.6109 37.9176 40.0705 38.1739 39.4778 38.3332C39.226 38.4022 38.9765 38.4579 38.7258 38.5058C38.4719 38.5504 38.199 38.5838 37.9035 38.6061C37.6061 38.6306 37.263 38.6473 36.8765 38.6585C36.4887 38.6696 36.0321 38.6752 35.5084 38.6752H25.9253L29.6542 20.9818Z" fill="#212C65"/>
<path d="M49.1644 20.9818H53.8177L51.2532 32.9601L60.491 20.9818H66.0033L62.2379 38.6752H57.5832L60.1154 26.6969L50.9101 38.6752H45.4346L49.1644 20.9818Z" fill="#212C65"/>
<path d="M74.1694 35.9045C74.9181 35.9045 75.5507 35.7841 76.0597 35.5446C76.5722 35.3051 77.0046 34.9965 77.3554 34.62C77.7065 34.2445 77.9848 33.8156 78.191 33.3366C78.3938 32.8574 78.5643 32.3786 78.7001 31.8994L79.1769 30.1894C78.5643 30.5536 77.907 30.7763 77.2017 30.8545C76.4978 30.9357 75.7925 30.9971 75.0883 31.0438C74.6337 31.0883 74.1917 31.1642 73.7593 31.2666C73.3281 31.3704 72.9494 31.523 72.6208 31.7289C72.2888 31.9328 72.0213 32.2137 71.8185 32.5679C71.6146 32.921 71.5122 33.37 71.5122 33.9181C71.5122 34.5809 71.7798 35.0767 72.3111 35.4054C72.8458 35.7373 73.4641 35.9045 74.1694 35.9045ZM72.3667 39.1207C71.4087 39.1207 70.5708 38.996 69.8524 38.7453C69.1337 38.4946 68.5345 38.1571 68.0554 37.7337C67.5762 37.3137 67.222 36.8235 66.9947 36.2632C66.7663 35.7039 66.6516 35.1157 66.6516 34.5007C66.6516 32.7872 67.24 31.4203 68.4153 30.3922C69.5906 29.3671 71.2504 28.7266 73.3951 28.4759C74.5336 28.3402 75.5284 28.2363 76.3717 28.1696C77.2162 28.1006 77.9169 27.9914 78.4774 27.8442C79.0343 27.6962 79.4522 27.4789 79.7251 27.1925C79.998 26.9085 80.1349 26.4795 80.1349 25.9114C80.1349 25.4545 80.0348 25.0892 79.8286 24.814C79.6227 24.541 79.3663 24.3237 79.0566 24.1646C78.7503 24.0063 78.4195 23.897 78.0652 23.8392C77.7119 23.7835 77.3745 23.7525 77.0571 23.7525C76.1881 23.7525 75.4138 23.9641 74.7284 24.3873C74.0434 24.8085 73.6233 25.4656 73.4607 26.3537H68.9098C69.0692 25.2375 69.4123 24.3072 69.9382 23.5662C70.4619 22.8256 71.1001 22.2261 71.8542 21.7692C72.6063 21.3126 73.4564 20.9872 74.4033 20.7944C75.3502 20.5996 76.3127 20.5026 77.2964 20.5026C78.0929 20.5026 78.9263 20.5605 79.7953 20.6754C80.6608 20.789 81.4608 21.0094 82.1906 21.3405C82.9202 21.6725 83.5185 22.1402 83.9862 22.744C84.4543 23.3492 84.677 24.1534 84.6547 25.1559C84.6547 25.9559 84.5267 26.9475 84.276 28.134L82.7029 35.2527C82.6104 35.5725 82.5491 35.9657 82.5158 36.4336C82.4801 36.9015 82.4636 37.3048 82.4636 37.6479C82.4636 37.9231 82.5192 38.2662 82.635 38.6751H77.7755V36.9294C77.1127 37.6836 76.3027 38.235 75.3447 38.5893C74.3865 38.9425 73.3951 39.1207 72.3667 39.1207Z" fill="#212C65"/>
<path d="M115.212 38.6752H97.1755L102.378 14.2383H107.75L103.506 34.1577H113.09L117.334 14.2383H122.706L118.462 34.1577H120.719L119.873 38.5649L115.212 38.6752Z" fill="#212C65"/>
<path d="M136.333 27.93C136.333 27.4731 136.294 27.022 136.213 26.5765C136.132 26.1307 135.979 25.7275 135.751 25.3621C135.523 24.9979 135.191 24.7081 134.76 24.4908C134.325 24.2738 133.753 24.1646 133.05 24.1646C132.364 24.1646 131.759 24.2681 131.233 24.4709C130.71 24.6771 130.253 24.9534 129.866 25.2931C129.476 25.635 129.153 26.036 128.891 26.4906C128.627 26.9475 128.404 27.4264 128.222 27.93H136.333ZM130.89 39.1207C129.704 39.1207 128.627 38.9592 127.657 38.6417C126.688 38.3219 125.861 37.8373 125.175 37.1856C124.494 36.5361 123.961 35.7318 123.586 34.7737C123.209 33.8156 123.02 32.6983 123.02 31.4203C123.02 30.0054 123.248 28.643 123.706 27.3317C124.162 26.0195 124.805 24.8553 125.638 23.8392C126.471 22.8256 127.493 22.0145 128.701 21.4107C129.91 20.8058 131.269 20.5026 132.774 20.5026C134.008 20.5026 135.13 20.6609 136.147 20.9818C137.16 21.3015 138.026 21.786 138.744 22.4354C139.467 23.0874 140.024 23.897 140.425 24.8664C140.822 25.8355 141.023 26.9586 141.023 28.2363C141.023 29.0363 140.931 29.9609 140.748 31.0082H127.711C127.711 31.1217 127.702 31.2922 127.691 31.5173C127.68 31.7457 127.674 31.9163 127.674 32.0275C127.674 33.0468 127.995 33.8735 128.632 34.5085C129.273 35.1413 130.253 35.4588 131.576 35.4588C132.055 35.4588 132.484 35.3864 132.86 35.2382C133.237 35.0934 133.568 34.9074 133.852 34.6812C134.139 34.4584 134.39 34.1999 134.606 33.907C134.821 33.6151 135.021 33.3332 135.205 33.0636H140.065C139.675 34.0663 139.218 34.9464 138.695 35.6983C138.169 36.4503 137.542 37.0854 136.813 37.5978C136.082 38.1103 135.233 38.4946 134.264 38.7453C133.291 38.996 132.17 39.1207 130.89 39.1207Z" fill="#212C65"/>
<path d="M145.677 20.9818H150.538L149.166 27.5514H156.046L157.416 20.9818H162.277L158.511 38.6752H153.652L155.261 31.1106H148.381L146.772 38.6752H141.948L145.677 20.9818Z" fill="#212C65"/>
<path d="M169.529 24.6438H163.71L164.499 20.9818H180.996L180.207 24.6438H174.389L171.412 38.6752H166.551L169.529 24.6438Z" fill="#212C65"/>
<path d="M186.859 24.5756H189.781C190.091 24.5756 190.393 24.6058 190.681 24.6671C190.948 24.717 191.195 24.8129 191.42 24.9466C191.62 25.0635 191.782 25.2375 191.903 25.4557C192.025 25.6853 192.087 25.9893 192.087 26.3592C192.087 27.2849 191.855 27.9378 191.377 28.3567C190.897 28.7834 190.215 28.9996 189.35 28.9996H185.951L186.859 24.5756ZM196.046 23.7779C195.728 23.0962 195.278 22.5358 194.708 22.1169C194.142 21.7093 193.47 21.4161 192.71 21.2402C191.966 21.0696 191.143 20.9818 190.257 20.9818H183.153L179.48 38.703H183.9L185.191 32.5936H189.543C190.46 32.5936 191.348 32.4519 192.182 32.1701C193.014 31.8849 193.763 31.4705 194.404 30.9403C195.046 30.4044 195.566 29.7382 195.947 28.9516C196.326 28.1619 196.518 27.2661 196.518 26.2845C196.518 25.3008 196.36 24.4586 196.046 23.7779Z" fill="#212C65"/>
<path fill-rule="evenodd" clip-rule="evenodd" d="M240.671 40.462H200.798L218.706 21.1734" fill="#212C65"/>
<path fill-rule="evenodd" clip-rule="evenodd" d="M240.671 40.462H200.798L218.706 21.1734" fill="#212C65"/>
<path fill-rule="evenodd" clip-rule="evenodd" d="M240.671 21.1734H218.706L200.798 40.462H262.635L280.544 21.1734H240.671Z" fill="#212C65"/>
<path fill-rule="evenodd" clip-rule="evenodd" d="M238.175 0.00403595L220.267 19.2928H282.106L300.014 0.00403595H238.175Z" fill="#212C65"/>
<path fill-rule="evenodd" clip-rule="evenodd" d="M263.124 43.2918H263.125L263.088 43.2517L262.244 42.3426H200.405L200.414 42.3515H0V43.2918H201.286L218.314 61.6313H240.278H240.279H280.153L263.124 43.2918Z" fill="#212C65"/>
<path d="M3.33652 49.9694C3.76432 49.9694 4.08851 49.8591 4.30688 49.6374C4.52857 49.4157 4.63552 49.1283 4.63552 48.7784C4.63552 48.5957 4.61213 48.4431 4.55754 48.3206C4.50741 48.198 4.43499 48.0989 4.34809 48.0242C4.26119 47.9496 4.15981 47.8983 4.04618 47.866C3.9292 47.8326 3.80667 47.8148 3.6752 47.8148H2.02306L1.57075 49.9694H3.33652ZM1.36354 47.1564H3.6752C4.23781 47.1564 4.67228 47.2912 4.97085 47.5574C5.2672 47.8203 5.41759 48.2281 5.41759 48.7784C5.41759 48.9578 5.38083 49.1561 5.31286 49.3744C5.24045 49.5895 5.1179 49.79 4.9441 49.9794C4.77367 50.1643 4.54306 50.3203 4.25563 50.4428C3.96485 50.5654 3.60612 50.6289 3.17165 50.6289H1.43038L0.917916 53.0297H0.136963L1.36354 47.1564Z" fill="#212C65"/>
<path d="M10.6826 50.6044L10.2459 47.8482H10.2303L8.65951 50.6044H10.6826ZM9.9429 47.1564H10.7963L11.8591 53.0297H11.0503L10.7818 51.2606H8.30524L7.27584 53.0297H6.41357L9.9429 47.1564Z" fill="#212C65"/>
<path d="M17.122 52.3701C17.3459 52.3701 17.5498 52.3468 17.7325 52.3011C17.9174 52.2543 18.0734 52.1819 18.2048 52.0827C18.3363 51.9847 18.4388 51.8555 18.5101 51.7006C18.5825 51.5446 18.6182 51.3586 18.6182 51.1458C18.6182 50.9163 18.5736 50.7358 18.4867 50.6077C18.3964 50.4785 18.2828 50.3827 18.1391 50.3236C17.9987 50.2635 17.8394 50.2278 17.6634 50.2156C17.4863 50.2067 17.3136 50.2 17.1364 50.2H15.8285L15.3673 52.3701H17.122ZM15.6971 47.1564H19.6631L19.5227 47.8148H16.331L15.9689 49.5416H17.5319C18.1658 49.5416 18.6393 49.6797 18.9412 49.9493C19.2465 50.2211 19.3991 50.601 19.3991 51.0923C19.3991 51.3497 19.3545 51.5981 19.271 51.8343C19.1874 52.0716 19.0549 52.2777 18.8822 52.4515C18.705 52.6286 18.4867 52.769 18.2226 52.8737C17.9597 52.9784 17.6511 53.0297 17.3013 53.0297H14.4482L15.6971 47.1564Z" fill="#212C65"/>
<path d="M24.8356 52.5027C25.2244 52.5027 25.5653 52.418 25.8617 52.2476C26.158 52.0805 26.4064 51.8555 26.607 51.5836C26.8086 51.3107 26.9579 50.9999 27.0593 50.6556C27.1618 50.3114 27.2119 49.9638 27.2119 49.614C27.2119 49.3444 27.1763 49.0926 27.105 48.8531C27.0326 48.6136 26.9278 48.4108 26.7841 48.237C26.6404 48.0666 26.4666 47.9284 26.2572 47.827C26.0511 47.7245 25.8115 47.6744 25.542 47.6744C25.132 47.6744 24.7721 47.7602 24.4702 47.934C24.165 48.1044 23.911 48.3295 23.7071 48.6024C23.5066 48.8776 23.3539 49.1884 23.2526 49.5393C23.1501 49.8891 23.0988 50.239 23.0988 50.5899C23.0988 50.874 23.1356 51.1347 23.2069 51.3708C23.2793 51.6048 23.384 51.8053 23.5277 51.9724C23.6715 52.1407 23.8508 52.2688 24.0658 52.3646C24.2819 52.457 24.5393 52.5027 24.8356 52.5027ZM24.8356 53.1611C24.0246 53.1611 23.4019 52.9394 22.9674 52.4938C22.534 52.0504 22.3179 51.4187 22.3179 50.5955C22.3179 50.1164 22.3925 49.6641 22.5396 49.233C22.6889 48.8029 22.9016 48.4219 23.1768 48.0955C23.4553 47.7669 23.7907 47.5039 24.1884 47.309C24.5872 47.114 25.0395 47.0182 25.542 47.0182C25.9218 47.0182 26.2627 47.084 26.5658 47.2187C26.871 47.3536 27.1284 47.5363 27.3378 47.7702C27.5506 48.003 27.7121 48.2782 27.8258 48.5957C27.9372 48.9132 27.994 49.2541 27.994 49.6162C27.994 50.0774 27.9216 50.5208 27.7745 50.9486C27.6308 51.3764 27.4214 51.7541 27.1495 52.0827C26.8799 52.4125 26.5479 52.6732 26.1558 52.867C25.7636 53.062 25.3236 53.1611 24.8356 53.1611Z" fill="#212C65"/>
<path d="M32.5226 47.8148H30.5496L30.6899 47.1564H35.4259L35.2787 47.8148H33.3034L32.2017 53.0297H31.4208L32.5226 47.8148Z" fill="#212C65"/>
<path d="M39.9189 50.6044L39.4822 47.8482H39.4677L37.8957 50.6044H39.9189ZM39.1802 47.1564H40.0324L41.0953 53.0297H40.2876L40.0178 51.2606H37.5426L36.5119 53.0297H35.6509L39.1802 47.1564Z" fill="#212C65"/>
<path d="M45.4926 47.8148H43.5208L43.6611 47.1564H48.3968L48.2499 47.8148H46.2746L45.1729 53.0297H44.3917L45.4926 47.8148Z" fill="#212C65"/>
<path d="M52.4164 52.3701C52.8687 52.3701 53.2275 52.2743 53.5038 52.0805C53.7788 51.8855 53.9137 51.5747 53.9137 51.1436C53.9137 50.913 53.8714 50.7336 53.781 50.6044C53.6952 50.4785 53.5805 50.3827 53.4368 50.3236C53.2931 50.2635 53.1351 50.2278 52.9611 50.2156C52.7851 50.2067 52.6114 50.2 52.4343 50.2H51.2579L50.7976 52.3701H52.4164ZM51.1264 47.1564H51.9084L51.3993 49.5416H52.8296C53.4648 49.5416 53.9336 49.6797 54.2402 49.9493C54.5454 50.2211 54.6945 50.601 54.6945 51.0923C54.6945 51.3497 54.6523 51.5981 54.5653 51.8343C54.4763 52.0716 54.3449 52.2777 54.1709 52.4515C53.9938 52.6286 53.7733 52.769 53.5058 52.8737C53.2431 52.9784 52.9343 53.0297 52.5812 53.0297H49.8752L51.1264 47.1564Z" fill="#212C65"/>
<path d="M64.3991 53.1611C63.588 53.1611 62.9651 52.9394 62.5342 52.4938C62.0996 52.0504 61.8845 51.4187 61.8845 50.5955C61.8845 50.1164 61.9558 49.6641 62.1064 49.233C62.2533 48.8029 62.4649 48.4219 62.7435 48.0955C63.0199 47.7669 63.3573 47.5039 63.7563 47.309C64.1507 47.114 64.603 47.0182 65.1087 47.0182C65.4261 47.0182 65.7193 47.0606 65.9922 47.1441C66.264 47.231 66.4979 47.3569 66.6984 47.524C66.8989 47.6922 67.0572 47.9017 67.1707 48.1557C67.2879 48.4108 67.3446 48.7094 67.3446 49.048H66.5638C66.5638 48.5868 66.4289 48.2426 66.1559 48.0153C65.8841 47.788 65.5365 47.6744 65.1087 47.6744C64.6954 47.6744 64.3389 47.7602 64.0335 47.934C63.7283 48.1044 63.4765 48.3295 63.2737 48.6024C63.0701 48.8776 62.9172 49.1884 62.816 49.5393C62.7167 49.8891 62.6657 50.239 62.6657 50.5899C62.6657 50.874 62.7022 51.1347 62.7703 51.3708C62.8428 51.6048 62.9509 51.8053 63.0943 51.9724C63.2349 52.1407 63.4143 52.2688 63.6302 52.3646C63.8487 52.457 64.1028 52.5027 64.3991 52.5027C64.8837 52.5027 65.2735 52.3768 65.5756 52.1217C65.8773 51.8677 66.0901 51.5112 66.2195 51.0478H67.0004C66.851 51.7062 66.5603 52.2209 66.1325 52.5985C65.7013 52.9728 65.1232 53.1611 64.3991 53.1611Z" fill="#212C65"/>
<path d="M75.1998 47.1564H79.7462L78.5041 53.0297H77.723L78.825 47.8148H75.8404L74.7387 53.0297H73.9575L75.1998 47.1564Z" fill="#212C65"/>
<path d="M85.0748 49.9694C85.5026 49.9694 85.8257 49.8591 86.0439 49.6374C86.2658 49.4157 86.3736 49.1283 86.3736 48.7784C86.3736 48.5957 86.3502 48.4431 86.2957 48.3206C86.2444 48.198 86.1731 48.0989 86.0864 48.0242C85.9994 47.9496 85.8982 47.8983 85.7844 47.866C85.6674 47.8326 85.5448 47.8148 85.4122 47.8148H83.76L83.3089 49.9694H85.0748ZM83.1018 47.1564H85.4122C85.976 47.1564 86.4092 47.2912 86.709 47.5574C87.0053 47.8203 87.1548 48.2281 87.1548 48.7784C87.1548 48.9578 87.1191 49.1561 87.0501 49.3744C86.9788 49.5895 86.8561 49.79 86.6825 49.9794C86.5119 50.1643 86.2812 50.3203 85.9937 50.4428C85.7031 50.5654 85.3443 50.6289 84.91 50.6289H83.1674L82.656 53.0297H81.874L83.1018 47.1564Z" fill="#212C65"/>
<path d="M92.0343 52.5027C92.4231 52.5027 92.7653 52.418 93.0616 52.2476C93.3579 52.0805 93.6063 51.8555 93.8068 51.5836C94.0073 51.3107 94.1568 50.9999 94.2592 50.6556C94.3604 50.3114 94.4106 49.9638 94.4106 49.614C94.4106 49.3444 94.375 49.0926 94.3037 48.8531C94.2312 48.6136 94.1265 48.4108 93.9828 48.237C93.8391 48.0666 93.6654 47.9284 93.456 47.827C93.2498 47.7245 93.0103 47.6744 92.7408 47.6744C92.3307 47.6744 91.9719 47.7602 91.669 47.934C91.3638 48.1044 91.1097 48.3295 90.9058 48.6024C90.7053 48.8776 90.5527 49.1884 90.4512 49.5393C90.3488 49.8891 90.2986 50.239 90.2986 50.5899C90.2986 50.874 90.3343 51.1347 90.4056 51.3708C90.478 51.6048 90.5827 51.8053 90.7264 51.9724C90.8702 52.1407 91.0495 52.2688 91.2657 52.3646C91.4808 52.457 91.738 52.5027 92.0343 52.5027ZM92.0343 53.1611C91.2232 53.1611 90.6006 52.9394 90.166 52.4938C89.7328 52.0504 89.5166 51.4187 89.5166 50.5955C89.5166 50.1164 89.5925 49.6641 89.7382 49.233C89.8888 48.8029 90.1004 48.4219 90.3768 48.0955C90.654 47.7669 90.9894 47.5039 91.3884 47.309C91.7859 47.114 92.2382 47.0182 92.7408 47.0182C93.1206 47.0182 93.4626 47.084 93.7646 47.2187C94.0698 47.3536 94.327 47.5363 94.5367 47.7702C94.7494 48.003 94.9108 48.2782 95.0246 48.5957C95.1359 48.9132 95.1926 49.2541 95.1926 49.6162C95.1926 50.0774 95.1202 50.5208 94.9744 50.9486C94.8307 51.3764 94.6211 51.7541 94.3481 52.0827C94.0786 52.4125 93.7467 52.6732 93.3545 52.867C92.9624 53.062 92.5223 53.1611 92.0343 53.1611Z" fill="#212C65"/>
<path d="M101.916 51.6727C102.209 51.5747 102.461 51.4332 102.67 51.2483C102.882 51.0656 103.047 50.8472 103.164 50.5899C103.284 50.3348 103.341 50.0507 103.341 49.7399C103.341 49.3176 103.208 48.9701 102.94 48.6971C102.67 48.4286 102.266 48.276 101.721 48.2426L100.949 51.8198C101.299 51.8198 101.622 51.7719 101.916 51.6727ZM100.94 48.2426C100.589 48.2426 100.266 48.2905 99.9731 48.3896C99.6802 48.4877 99.4283 48.6314 99.219 48.8141C99.0059 48.9968 98.8411 49.2185 98.7242 49.4725C98.605 49.7276 98.5482 50.0117 98.5482 50.3236C98.5482 50.7447 98.6831 51.0923 98.9492 51.3653C99.219 51.6338 99.6254 51.7864 100.168 51.8198L100.94 48.2426ZM100.036 52.4548C99.6802 52.437 99.3625 52.3735 99.0807 52.2632C98.8 52.1551 98.5628 52.0047 98.3688 51.8198C98.1737 51.6338 98.0246 51.4154 97.9222 51.1614C97.8172 50.9096 97.7673 50.6311 97.7673 50.3236C97.7673 49.9126 97.8509 49.5416 98.0212 49.2096C98.1883 48.8776 98.4224 48.5924 98.7188 48.3529C99.0117 48.1145 99.3624 47.9317 99.7637 47.8025C100.165 47.6744 100.601 47.6076 101.072 47.6076L101.197 47.0182H101.975L101.853 47.6076C102.209 47.6265 102.526 47.6889 102.807 47.8003C103.089 47.9072 103.325 48.0565 103.52 48.2426C103.714 48.4286 103.865 48.6492 103.966 48.9043C104.071 49.1583 104.122 49.4368 104.122 49.7399C104.122 50.1498 104.038 50.5242 103.868 50.8528C103.699 51.1848 103.466 51.47 103.169 51.7095C102.876 51.949 102.526 52.1306 102.122 52.2598C101.715 52.3891 101.281 52.4548 100.816 52.4548L100.667 53.1611H99.8861L100.036 52.4548Z" fill="#212C65"/>
<path d="M107.683 47.1564H111.731L111.6 47.8148H108.333L107.939 49.6831H110.982L110.851 50.3415H107.798L107.369 52.3701H110.677L110.528 53.0297H106.441L107.683 47.1564Z" fill="#212C65"/>
<path d="M116.293 53.1611C115.482 53.1611 114.859 52.9394 114.428 52.4938C113.993 52.0504 113.778 51.4187 113.778 50.5955C113.778 50.1164 113.85 49.6641 114 49.233C114.146 48.8029 114.359 48.4219 114.637 48.0955C114.913 47.7669 115.251 47.5039 115.649 47.309C116.045 47.114 116.497 47.0182 117.002 47.0182C117.32 47.0182 117.613 47.0606 117.886 47.1441C118.158 47.231 118.392 47.3569 118.592 47.524C118.793 47.6922 118.951 47.9017 119.064 48.1557C119.182 48.4108 119.238 48.7094 119.238 49.048H118.458C118.458 48.5868 118.323 48.2426 118.05 48.0153C117.778 47.788 117.43 47.6744 117.002 47.6744C116.589 47.6744 116.233 47.7602 115.927 47.934C115.622 48.1044 115.37 48.3295 115.168 48.6024C114.964 48.8776 114.811 49.1884 114.71 49.5393C114.611 49.8891 114.559 50.239 114.559 50.5899C114.559 50.874 114.596 51.1347 114.664 51.3708C114.737 51.6048 114.845 51.8053 114.988 51.9724C115.129 52.1407 115.308 52.2688 115.524 52.3646C115.742 52.457 115.997 52.5027 116.293 52.5027C116.777 52.5027 117.167 52.3768 117.469 52.1217C117.771 51.8677 117.984 51.5112 118.113 51.0478H118.894C118.745 51.7062 118.454 52.2209 118.026 52.5985C117.595 52.9728 117.017 53.1611 116.293 53.1611Z" fill="#212C65"/>
<path d="M124.288 53.1611C123.477 53.1611 122.855 52.9394 122.42 52.4938C121.987 52.0504 121.771 51.4187 121.771 50.5955C121.771 50.1164 121.845 49.6641 121.992 49.233C122.142 48.8029 122.355 48.4219 122.629 48.0955C122.908 47.7669 123.244 47.5039 123.641 47.309C124.04 47.114 124.492 47.0182 124.995 47.0182C125.312 47.0182 125.609 47.0606 125.878 47.1441C126.15 47.231 126.386 47.3569 126.587 47.524C126.789 47.6922 126.943 47.9017 127.06 48.1557C127.174 48.4108 127.231 48.7094 127.231 49.048H126.45C126.45 48.5868 126.315 48.2426 126.042 48.0153C125.774 47.788 125.422 47.6744 124.995 47.6744C124.585 47.6744 124.225 47.7602 123.923 47.934C123.618 48.1044 123.364 48.3295 123.16 48.6024C122.959 48.8776 122.807 49.1884 122.704 49.5393C122.603 49.8891 122.553 50.239 122.553 50.5899C122.553 50.874 122.588 51.1347 122.66 51.3708C122.732 51.6048 122.837 51.8053 122.981 51.9724C123.124 52.1407 123.304 52.2688 123.519 52.3646C123.735 52.457 123.992 52.5027 124.288 52.5027C124.77 52.5027 125.162 52.3768 125.465 52.1217C125.765 51.8677 125.98 51.5112 126.105 51.0478H126.886C126.741 51.7062 126.45 52.2209 126.018 52.5985C125.588 52.9728 125.013 53.1611 124.288 53.1611Z" fill="#212C65"/>
<path d="M130.746 47.1564H131.527L130.482 52.1072L134.412 47.1564H135.439L134.199 53.0297H133.418L134.469 48.0632L130.52 53.0297H129.502L130.746 47.1564Z" fill="#212C65"/>
<path d="M140.342 52.5027C140.731 52.5027 141.073 52.418 141.369 52.2476C141.666 52.0805 141.914 51.8555 142.114 51.5836C142.315 51.3107 142.464 50.9999 142.566 50.6556C142.668 50.3114 142.719 49.9638 142.719 49.614C142.719 49.3444 142.683 49.0926 142.611 48.8531C142.539 48.6136 142.434 48.4108 142.29 48.237C142.147 48.0666 141.973 47.9284 141.763 47.827C141.557 47.7245 141.318 47.6744 141.048 47.6744C140.638 47.6744 140.279 47.7602 139.977 47.934C139.671 48.1044 139.417 48.3295 139.213 48.6024C139.013 48.8776 138.86 49.1884 138.759 49.5393C138.656 49.8891 138.605 50.239 138.605 50.5899C138.605 50.874 138.642 51.1347 138.713 51.3708C138.786 51.6048 138.89 51.8053 139.034 51.9724C139.178 52.1407 139.357 52.2688 139.573 52.3646C139.788 52.457 140.046 52.5027 140.342 52.5027ZM140.342 53.1611C139.531 53.1611 138.908 52.9394 138.474 52.4938C138.04 52.0504 137.824 51.4187 137.824 50.5955C137.824 50.1164 137.899 49.6641 138.046 49.233C138.195 48.8029 138.408 48.4219 138.683 48.0955C138.962 47.7669 139.297 47.5039 139.696 47.309C140.094 47.114 140.546 47.0182 141.048 47.0182C141.428 47.0182 141.77 47.084 142.072 47.2187C142.377 47.3536 142.635 47.5363 142.844 47.7702C143.057 48.003 143.218 48.2782 143.332 48.5957C143.443 48.9132 143.5 49.2541 143.5 49.6162C143.5 50.0774 143.428 50.5208 143.282 50.9486C143.138 51.3764 142.928 51.7541 142.656 52.0827C142.386 52.4125 142.054 52.6732 141.662 52.867C141.27 53.062 140.83 53.1611 140.342 53.1611Z" fill="#212C65"/>
<path d="M147.092 47.1564H147.882L147.349 49.6831H150.424L150.95 47.1564H151.732L150.499 53.0297H149.718L150.283 50.3415H147.209L146.64 53.0297H145.859L147.092 47.1564Z" fill="#212C65"/>
<path d="M157.629 50.6044L157.192 47.8482H157.176L155.606 50.6044H157.629ZM156.889 47.1564H157.743L158.805 53.0297H157.998L157.728 51.2606H155.253L154.222 53.0297H153.361L156.889 47.1564Z" fill="#212C65"/>
<path d="M161.419 53.11C161.337 53.11 161.229 53.1044 161.101 53.0855C160.973 53.071 160.874 53.0498 160.802 53.0298L160.943 52.3702C161.062 52.4037 161.224 52.4215 161.428 52.4215C161.559 52.4215 161.679 52.3948 161.784 52.338C161.891 52.2834 161.996 52.1853 162.098 52.0472C162.2 51.9068 162.299 51.7185 162.4 51.479C162.502 51.2395 162.61 50.9398 162.727 50.5777C162.84 50.2123 162.97 49.7511 163.113 49.1974C163.257 48.6437 163.412 47.9642 163.582 47.1565H167.264L166.025 53.0298H165.244L166.346 47.8149H164.182C164.043 48.461 163.919 49.018 163.798 49.4793C163.681 49.9427 163.571 50.3416 163.466 50.668C163.307 51.1615 163.154 51.5681 163.011 51.8856C162.865 52.2031 162.714 52.4549 162.559 52.6343C162.4 52.817 162.233 52.9395 162.047 53.0086C161.864 53.0777 161.655 53.11 161.419 53.11Z" fill="#212C65"/>
<path d="M173.171 50.6044L172.737 47.8482H172.719L171.147 50.6044H173.171ZM172.431 47.1564H173.288L174.347 53.0297H173.542L173.27 51.2606H170.794L169.768 53.0297H168.902L172.431 47.1564Z" fill="#212C65"/>
<path d="M178.179 47.1564H179.265L180.047 52.2064H180.065L182.965 47.1564H184.052L182.81 53.0297H182.061L183.261 47.8894H183.246L180.253 53.0297H179.504L178.739 47.8894H178.72L177.694 53.0297H176.946L178.179 47.1564Z" fill="#212C65"/>
<path d="M187.39 47.1564H188.171L187.126 52.1072L191.059 47.1564H192.087L190.843 53.0297H190.062L191.116 48.0632L187.168 53.0297H186.147L187.39 47.1564Z" fill="#212C65"/>
</g>
<defs>
<clipPath id="clip0_56_146">
<rect width="300" height="61.6313" fill="white"/>
</clipPath>
</defs>
</svg>
